<svg width="68" height="33" viewBox="0 0 68 33" fill="none" xmlns="http://www.w3.org/2000/svg">
<path d="M28.331 14.6311L31.546 11.0962C26.5091 2.52691 18.15 -1.22217 10.4338 1.45574C3.89654 3.7052 -0.283039 10.7749 0.359973 18.4873C1.11015 25.4499 6.36141 31.02 13.2202 32.3054C18.793 33.1623 23.2941 31.2342 27.1521 27.2709C32.9392 21.1652 38.8335 14.9524 44.7278 8.8468C48.4787 4.66924 54.9088 4.34789 59.1955 8.09698C59.6242 8.41833 59.9457 8.8468 60.2672 9.27526C64.2325 13.8813 63.8038 20.7368 59.4099 24.9143C55.3375 28.7705 49.0145 28.5563 45.1565 24.593C43.3346 22.772 41.8342 20.7368 39.9052 18.4873L36.0471 22.6649C39.155 25.4499 41.8342 28.342 44.9421 30.3773C51.5866 34.769 60.8031 32.4125 65.197 25.4499C69.5909 18.4873 68.0905 8.63256 61.6604 3.81231C55.016 -1.11506 46.8712 -0.365238 41.084 5.74041C35.1898 11.9532 29.2955 18.166 23.2941 24.2716C19.436 28.4492 12.8987 28.7705 8.71912 24.9143C8.39762 24.593 8.07611 24.2716 7.75461 23.9503C3.89654 19.3442 4.32521 12.4888 8.61196 8.31121C12.6844 4.45501 19.2216 4.66925 23.0797 8.73968C23.1869 8.8468 23.1869 8.95391 23.2941 8.95391C25.0088 10.6678 26.5091 12.4888 28.331 14.6311Z" fill="url(#paint0_linear_578_2033)"/>
<defs>
<linearGradient id="paint0_linear_578_2033" x1="67.8443" y1="31.294" x2="45.5827" y2="-11.0055" gradientUnits="userSpaceOnUse">
<stop stop-color="#F26A2F"/>
<stop offset="1" stop-color="#E50D40"/>
</linearGradient>
</defs>
</svg>
